<svg width="20" height="16" viewBox="0 0 20 16" fill="none" xmlns="http://www.w3.org/2000/svg">
<path d="M5.05991 4.016C5.95078 2.46419 7.33619 1.25586 8.99466 0.584131C10.6531 -0.0875939 12.4889 -0.183922 14.2086 0.310545C15.9283 0.805011 17.4325 1.86172 18.4809 3.31177C19.5293 4.76182 20.0613 6.52147 19.9919 8.30947C19.9224 10.0975 19.2556 11.8106 18.0979 13.1749C16.9402 14.5393 15.3585 15.4762 13.6057 15.8358C11.8528 16.1954 10.03 15.957 8.42866 15.1587C6.82727 14.3604 5.53975 13.0482 4.77191 11.432C4.2589 11.8073 3.63952 12.0091 3.00391 12.008H2.00391V12.518C2.00391 12.898 2.14791 13.244 2.38391 13.506C2.58558 13.278 2.85192 13.1169 3.14745 13.044C3.44299 12.9712 3.7537 12.9901 4.03821 13.0983C4.32273 13.2064 4.56754 13.3987 4.74006 13.6495C4.91258 13.9002 5.00461 14.1976 5.00391 14.502C5.00376 14.711 4.95992 14.9177 4.87521 15.1088C4.79049 15.2999 4.66677 15.4712 4.51198 15.6117C4.35718 15.7522 4.17474 15.8587 3.97634 15.9246C3.77794 15.9904 3.56798 16.0141 3.35991 15.994C2.45914 15.9624 1.60582 15.5823 0.979779 14.9339C0.353737 14.2855 0.00386987 13.4193 0.00390625 12.518V5.014C0.00390625 4.74878 0.109263 4.49443 0.2968 4.30689C0.484336 4.11935 0.73869 4.014 1.00391 4.014H5.00391L5.05991 4.016ZM2.00391 10.008H3.00391C3.26912 10.008 3.52348 9.90264 3.71101 9.7151C3.89855 9.52757 4.00391 9.27321 4.00391 9.008V8.268C3.99803 8.08938 3.99803 7.91062 4.00391 7.732V6.014H2.00391V10.008Z" fill="white"/>
</svg>
