<svg width="20" height="14" viewBox="0 0 20 14" fill="none" xmlns="http://www.w3.org/2000/svg">
<path d="M20 11.5V0.25H0V11.5C0 12.163 0.263392 12.7989 0.732233 13.2678C1.20107 13.7366 1.83696 14 2.5 14H17.5C18.163 14 18.7989 13.7366 19.2678 13.2678C19.7366 12.7989 20 12.163 20 11.5ZM11.67 9.9875C10.2825 9.9875 9.6 9.02875 9.54125 8.22875H10.395C10.4487 8.69125 10.8787 9.25375 11.7087 9.25375C12.7637 9.25375 13.335 8.19375 13.34 6.54875H13.3063C13.115 7.06625 12.51 7.53625 11.5775 7.53625C10.5125 7.53625 9.4825 6.77375 9.4825 5.32375C9.4825 3.9025 10.5713 3.0625 11.7288 3.0625C13.1938 3.0625 14.17 3.98 14.17 6.3975C14.17 8.65375 13.2425 9.98625 11.67 9.98625V9.9875ZM8.0575 3.19375V9.85875H7.2125V4.09875H7.1975C6.835 4.29375 6.09375 4.74875 5.625 5.07V4.2C6.15105 3.83143 6.69916 3.49539 7.26625 3.19375H8.05625H8.0575Z" fill="#3E94FE"/>
</svg>
