<svg width="15" height="15" viewBox="0 0 15 15" fill="none" xmlns="http://www.w3.org/2000/svg">
<path d="M13.6667 6.52879C13.8569 7.81183 13.6378 9.1222 13.0404 10.2735C12.443 11.4248 11.4978 12.3585 10.3392 12.9416C9.18058 13.5248 7.8676 13.7277 6.587 13.5217C5.3064 13.3156 4.12338 12.711 3.20621 11.7938C2.28903 10.8767 1.68442 9.69364 1.47835 8.41303C1.27228 7.13243 1.47526 5.81946 2.05842 4.66086C2.64157 3.50227 3.5752 2.55705 4.72651 1.95966C5.87783 1.36227 7.1882 1.14311 8.47125 1.33337C9.78 1.52744 10.9916 2.13729 11.9272 3.07284C12.8627 4.00839 13.4726 5.22003 13.6667 6.52879Z" stroke="#3E94FE" stroke-width="2" stroke-linecap="round" stroke-linejoin="round"/>
</svg>
