<svg width="11" height="20" viewBox="0 0 11 20" fill="none" xmlns="http://www.w3.org/2000/svg">
<path d="M2.40753 0.0833492C2.61917 0.0826283 2.82829 0.129339 3.01951 0.220047C3.21073 0.310755 3.3792 0.443153 3.51253 0.607517L10.355 9.10752C10.5634 9.361 10.6773 9.67896 10.6773 10.0071C10.6773 10.3352 10.5634 10.6532 10.355 10.9067L3.2717 19.4067C3.03124 19.696 2.6857 19.8779 2.31109 19.9125C1.93649 19.947 1.56351 19.8313 1.2742 19.5908C0.984892 19.3504 0.802958 19.0048 0.76842 18.6302C0.733882 18.2556 0.849569 17.8827 1.09003 17.5933L7.42253 10L1.30253 2.40668C1.1293 2.19874 1.01926 1.94552 0.985426 1.67699C0.951597 1.40847 0.995396 1.13586 1.11164 0.891451C1.22789 0.647038 1.41171 0.441038 1.64137 0.297827C1.87103 0.154615 2.1369 0.0801868 2.40753 0.0833492Z" fill="#3E94FE"/>
</svg>
