<svg width="131" height="34" viewBox="0 0 131 34" fill="none" xmlns="http://www.w3.org/2000/svg">
<path d="M12.436 12.54C13.9 12.684 15.124 13.284 16.108 14.34C17.116 15.372 17.62 16.752 17.62 18.48C17.62 20.664 16.9 22.38 15.46 23.628C14.044 24.876 12.088 25.5 9.592 25.5H0.7V0.299998H9.124C11.644 0.299998 13.624 0.887999 15.064 2.064C16.504 3.216 17.224 4.812 17.224 6.852C17.224 10.02 15.628 11.916 12.436 12.54ZM8.944 3.936H4.84V10.848H8.944C10.24 10.848 11.248 10.548 11.968 9.948C12.712 9.324 13.084 8.472 13.084 7.392C13.084 6.288 12.724 5.436 12.004 4.836C11.284 4.236 10.264 3.936 8.944 3.936ZM9.52 21.864C10.768 21.864 11.74 21.528 12.436 20.856C13.132 20.184 13.48 19.248 13.48 18.048C13.48 16.992 13.12 16.14 12.4 15.492C11.68 14.82 10.732 14.484 9.556 14.484H4.84V21.864H9.52ZM35.6186 23.448C34.0346 25.104 31.8866 25.932 29.1746 25.932C26.4626 25.932 24.3026 25.104 22.6946 23.448C21.1106 21.768 20.3186 19.656 20.3186 17.112C20.3186 14.568 21.1106 12.468 22.6946 10.812C24.3026 9.132 26.4626 8.292 29.1746 8.292C31.8866 8.292 34.0346 9.132 35.6186 10.812C37.2266 12.468 38.0306 14.568 38.0306 17.112C38.0306 19.656 37.2266 21.768 35.6186 23.448ZM25.5386 20.964C26.4266 21.948 27.6386 22.44 29.1746 22.44C30.7106 22.44 31.9106 21.948 32.7746 20.964C33.6626 19.98 34.1066 18.696 34.1066 17.112C34.1066 15.528 33.6626 14.244 32.7746 13.26C31.9106 12.276 30.7106 11.784 29.1746 11.784C27.6386 11.784 26.4266 12.276 25.5386 13.26C24.6746 14.244 24.2426 15.528 24.2426 17.112C24.2426 18.696 24.6746 19.98 25.5386 20.964ZM41.7934 25.5V8.724H45.7174V11.064C46.7974 9.216 48.6214 8.292 51.1894 8.292C55.2694 8.292 57.3094 10.512 57.3094 14.952V25.5H53.3854V16.752C53.3854 14.928 53.1094 13.62 52.5574 12.828C52.0054 12.036 51.0574 11.64 49.7134 11.64C48.4414 11.64 47.4574 12.048 46.7614 12.864C46.0654 13.656 45.7174 14.796 45.7174 16.284V25.5H41.7934ZM74.5321 8.724H78.4561V24.78C78.4561 28.14 77.4481 30.552 75.4321 32.016C74.1121 33 72.1921 33.492 69.6721 33.492C67.2241 33.492 65.2561 32.988 63.7681 31.98C62.0641 30.828 61.1761 29.304 61.1041 27.408H65.2081C65.5681 29.304 67.0441 30.252 69.6361 30.252C71.2921 30.252 72.5161 29.844 73.3081 29.028C74.1241 28.236 74.5321 26.916 74.5321 25.068V23.232C74.0521 24.048 73.2961 24.708 72.2641 25.212C71.2561 25.692 70.2241 25.932 69.1681 25.932C66.6241 25.932 64.6081 25.104 63.1201 23.448C61.6561 21.768 60.9241 19.656 60.9241 17.112C60.9241 14.592 61.6921 12.492 63.2281 10.812C64.7881 9.132 66.8041 8.292 69.2761 8.292C70.4041 8.292 71.4361 8.532 72.3721 9.012C73.3081 9.492 74.0281 10.152 74.5321 10.992V8.724ZM69.7441 22.44C71.2801 22.44 72.4921 21.936 73.3801 20.928C74.2681 19.896 74.7121 18.624 74.7121 17.112C74.7121 15.6 74.2681 14.34 73.3801 13.332C72.4921 12.3 71.2801 11.784 69.7441 11.784C68.2801 11.784 67.0921 12.288 66.1801 13.296C65.2921 14.28 64.8481 15.552 64.8481 17.112C64.8481 18.672 65.2921 19.956 66.1801 20.964C67.0921 21.948 68.2801 22.44 69.7441 22.44ZM90.4727 25.932C87.8568 25.932 85.8288 25.104 84.3888 23.448C82.9488 21.792 82.2288 19.68 82.2288 17.112C82.2288 14.568 82.9848 12.468 84.4968 10.812C86.0088 9.132 88.0368 8.292 90.5808 8.292C91.7088 8.292 92.7408 8.532 93.6768 9.012C94.6128 9.492 95.3328 10.152 95.8368 10.992V8.724H99.7608V25.5H95.8368V23.232C95.3568 24.048 94.6008 24.708 93.5688 25.212C92.5608 25.692 91.5288 25.932 90.4727 25.932ZM91.0488 22.44C92.6568 22.44 93.8808 21.936 94.7208 20.928C95.5848 19.92 96.0168 18.648 96.0168 17.112C96.0168 15.576 95.5848 14.304 94.7208 13.296C93.8808 12.288 92.6568 11.784 91.0488 11.784C89.5368 11.784 88.3368 12.288 87.4488 13.296C86.5848 14.28 86.1528 15.552 86.1528 17.112C86.1528 18.672 86.5848 19.956 87.4488 20.964C88.3368 21.948 89.5368 22.44 91.0488 22.44ZM104.793 25.5V0.299998H108.717V25.5H104.793ZM127.798 23.448C126.214 25.104 124.066 25.932 121.354 25.932C118.642 25.932 116.482 25.104 114.874 23.448C113.29 21.768 112.498 19.656 112.498 17.112C112.498 14.568 113.29 12.468 114.874 10.812C116.482 9.132 118.642 8.292 121.354 8.292C124.066 8.292 126.214 9.132 127.798 10.812C129.406 12.468 130.21 14.568 130.21 17.112C130.21 19.656 129.406 21.768 127.798 23.448ZM117.718 20.964C118.606 21.948 119.818 22.44 121.354 22.44C122.89 22.44 124.09 21.948 124.954 20.964C125.842 19.98 126.286 18.696 126.286 17.112C126.286 15.528 125.842 14.244 124.954 13.26C124.09 12.276 122.89 11.784 121.354 11.784C119.818 11.784 118.606 12.276 117.718 13.26C116.854 14.244 116.422 15.528 116.422 17.112C116.422 18.696 116.854 19.98 117.718 20.964Z" fill="#12171E" fill-opacity="0.654531"/>
</svg>
