<svg width="171" height="14" viewBox="0 0 171 14" fill="none" xmlns="http://www.w3.org/2000/svg">
<path d="M4.05176 8.6582V13H0.966797V0.203125H6.07324C7.05176 0.203125 7.91602 0.384766 8.66602 0.748047C9.42188 1.10547 10.0049 1.61816 10.415 2.28613C10.8311 2.94824 11.0391 3.70117 11.0391 4.54492C11.0391 5.79297 10.5908 6.79199 9.69434 7.54199C8.80371 8.28613 7.5791 8.6582 6.02051 8.6582H4.05176ZM4.05176 6.27637H6.07324C6.6709 6.27637 7.125 6.12695 7.43555 5.82812C7.75195 5.5293 7.91016 5.10742 7.91016 4.5625C7.91016 3.96484 7.74902 3.4873 7.42676 3.12988C7.10449 2.77246 6.66504 2.59082 6.1084 2.58496H4.05176V6.27637ZM18.3955 10.6094H14.168L13.4297 13H10.1338L14.8271 0.203125H17.7275L22.4561 13H19.1426L18.3955 10.6094ZM14.9062 8.22754H17.6572L16.2773 3.78906L14.9062 8.22754ZM26.7627 5.75781L29.1182 0.203125H32.4492L28.3271 8.40332V13H25.1982V8.40332L21.085 0.203125H24.3984L26.7627 5.75781ZM37.4326 0.203125L40.2891 9.10645L43.1367 0.203125H47.1973V13H44.1035V10.0117L44.4023 3.89453L41.3086 13H39.2695L36.167 3.88574L36.4658 10.0117V13H33.3809V0.203125H37.4326ZM57.1025 7.57715H52.251V10.627H57.9814V13H49.166V0.203125H57.999V2.58496H52.251V5.2832H57.1025V7.57715ZM69.9258 13H66.8584L62.3232 5.03711V13H59.2383V0.203125H62.3232L66.8496 8.16602V0.203125H69.9258V13ZM81.6592 2.58496H77.8184V13H74.7334V2.58496H70.9629V0.203125H81.6592V2.58496ZM90.9756 0.203125L93.832 9.10645L96.6797 0.203125H100.74V13H97.6465V10.0117L97.9453 3.89453L94.8516 13H92.8125L89.71 3.88574L90.0088 10.0117V13H86.9238V0.203125H90.9756ZM110.646 7.57715H105.794V10.627H111.524V13H102.709V0.203125H111.542V2.58496H105.794V5.2832H110.646V7.57715ZM123.003 2.58496H119.162V13H116.077V2.58496H112.307V0.203125H123.003V2.58496ZM135.009 13H131.941V7.65625H127.397V13H124.312V0.203125H127.397V5.2832H131.941V0.203125H135.009V13ZM147.806 6.86523C147.806 8.11328 147.574 9.21777 147.111 10.1787C146.648 11.1396 145.989 11.8809 145.134 12.4023C144.284 12.918 143.314 13.1758 142.225 13.1758C141.135 13.1758 140.168 12.9268 139.324 12.4287C138.48 11.9248 137.821 11.207 137.347 10.2754C136.878 9.34375 136.632 8.27441 136.608 7.06738V6.34668C136.608 5.09277 136.837 3.98828 137.294 3.0332C137.757 2.07227 138.416 1.33105 139.271 0.80957C140.133 0.288086 141.111 0.0273438 142.207 0.0273438C143.291 0.0273438 144.258 0.285156 145.107 0.800781C145.957 1.31641 146.616 2.05176 147.085 3.00684C147.56 3.95605 147.8 5.0459 147.806 6.27637V6.86523ZM144.668 6.3291C144.668 5.05762 144.454 4.09375 144.026 3.4375C143.604 2.77539 142.998 2.44434 142.207 2.44434C140.66 2.44434 139.843 3.60449 139.755 5.9248L139.746 6.86523C139.746 8.11914 139.954 9.08301 140.37 9.75684C140.786 10.4307 141.404 10.7676 142.225 10.7676C143.004 10.7676 143.604 10.4365 144.026 9.77441C144.448 9.1123 144.662 8.16016 144.668 6.91797V6.3291ZM149.396 13V0.203125H153.519C154.649 0.203125 155.666 0.460938 156.568 0.976562C157.471 1.48633 158.174 2.20996 158.678 3.14746C159.188 4.0791 159.445 5.125 159.451 6.28516V6.87402C159.451 8.0459 159.202 9.09766 158.704 10.0293C158.212 10.9551 157.515 11.6816 156.612 12.209C155.716 12.7305 154.714 12.9941 153.606 13H149.396ZM152.481 2.58496V10.627H153.554C154.438 10.627 155.118 10.3135 155.593 9.68652C156.067 9.05371 156.305 8.11621 156.305 6.87402V6.32031C156.305 5.08398 156.067 4.15234 155.593 3.52539C155.118 2.89844 154.427 2.58496 153.519 2.58496H152.481ZM167.634 9.59863C167.634 9.14746 167.473 8.7959 167.15 8.54395C166.834 8.29199 166.274 8.03125 165.472 7.76172C164.669 7.49219 164.013 7.23145 163.503 6.97949C161.845 6.16504 161.016 5.0459 161.016 3.62207C161.016 2.91309 161.221 2.28906 161.631 1.75C162.047 1.20508 162.633 0.783203 163.389 0.484375C164.145 0.179688 164.994 0.0273438 165.938 0.0273438C166.857 0.0273438 167.681 0.191406 168.407 0.519531C169.14 0.847656 169.708 1.31641 170.112 1.92578C170.517 2.5293 170.719 3.2207 170.719 4H167.643C167.643 3.47852 167.481 3.07422 167.159 2.78711C166.843 2.5 166.412 2.35645 165.867 2.35645C165.316 2.35645 164.88 2.47949 164.558 2.72559C164.241 2.96582 164.083 3.27344 164.083 3.64844C164.083 3.97656 164.259 4.27539 164.61 4.54492C164.962 4.80859 165.58 5.08398 166.465 5.37109C167.35 5.65234 168.076 5.95703 168.645 6.28516C170.027 7.08203 170.719 8.18066 170.719 9.58105C170.719 10.7002 170.297 11.5791 169.453 12.2178C168.609 12.8564 167.452 13.1758 165.981 13.1758C164.944 13.1758 164.004 12.9912 163.16 12.6221C162.322 12.2471 161.689 11.7373 161.262 11.0928C160.84 10.4424 160.629 9.69531 160.629 8.85156H163.723C163.723 9.53711 163.898 10.0439 164.25 10.3721C164.607 10.6943 165.185 10.8555 165.981 10.8555C166.491 10.8555 166.893 10.7471 167.186 10.5303C167.484 10.3076 167.634 9.99707 167.634 9.59863Z" fill="#12171E" fill-opacity="0.654531"/>
</svg>
